<mxfile host="65bd71144e" scale="1" border="10">
    <diagram id="2NHFa1pFGRz28-3mXrRy" name="Page-1">
        <mxGraphModel dx="2449" dy="1400" grid="1" gridSize="10" guides="1" tooltips="1" connect="1" arrows="1" fold="1" page="1" pageScale="1" pageWidth="1100" pageHeight="850" math="0" shadow="0">
            <root>
                <mxCell id="0"/>
                <mxCell id="1" parent="0"/>
                <mxCell id="25" value="" style="group" parent="1" vertex="1" connectable="0">
                    <mxGeometry x="1190" y="300" width="810" height="192.5" as="geometry"/>
                </mxCell>
                <mxCell id="26" value="&lt;font&gt;Video&lt;/font&gt;" style="rounded=1;whiteSpace=wrap;html=1;fillColor=#eeeeee;strokeColor=#36393d;fontColor=#000000;" parent="25" vertex="1">
                    <mxGeometry y="86.51685393258427" width="96.84782608695652" height="34.60674157303371" as="geometry"/>
                </mxCell>
                <mxCell id="27" value="Frame extractor" style="rounded=0;whiteSpace=wrap;html=1;fillColor=#cdeb8b;strokeColor=#333333;fontColor=#333333;" parent="25" vertex="1">
                    <mxGeometry x="132.06521739130434" y="82.19101123595506" width="88.04347826086956" height="43.258426966292134" as="geometry"/>
                </mxCell>
                <mxCell id="28" value="" style="endArrow=classic;html=1;fontSize=10;fontColor=#333333;targetPerimeterSpacing=0;strokeColor=#000000;strokeWidth=3;fillColor=default;jumpStyle=none;" parent="25" edge="1">
                    <mxGeometry width="50" height="50" relative="1" as="geometry">
                        <mxPoint x="105.65217391304347" y="103.44820224719075" as="sourcePoint"/>
                        <mxPoint x="123.26086956521739" y="103.44820224719075" as="targetPoint"/>
                    </mxGeometry>
                </mxCell>
                <mxCell id="29" value="" style="endArrow=classic;html=1;fontSize=10;fontColor=#333333;targetPerimeterSpacing=0;strokeColor=#000000;strokeWidth=3;fillColor=default;jumpStyle=none;" parent="25" edge="1">
                    <mxGeometry width="50" height="50" relative="1" as="geometry">
                        <mxPoint x="228.91304347826085" y="103.82022471910074" as="sourcePoint"/>
                        <mxPoint x="246.52173913043478" y="103.82022471910074" as="targetPoint"/>
                    </mxGeometry>
                </mxCell>
                <mxCell id="30" value="&lt;font&gt;Frame t-1&amp;nbsp;&lt;br&gt;&lt;/font&gt;" style="rounded=1;whiteSpace=wrap;html=1;fillColor=#eeeeee;strokeColor=#36393d;fontColor=#000000;" parent="25" vertex="1">
                    <mxGeometry x="255.3260869565217" y="73.53932584269663" width="96.84782608695652" height="25.95505617977528" as="geometry"/>
                </mxCell>
                <mxCell id="31" value="&lt;font&gt;Frame t&amp;nbsp;&lt;br&gt;&lt;/font&gt;" style="rounded=1;whiteSpace=wrap;html=1;fillColor=#eeeeee;strokeColor=#36393d;fontColor=#000000;" parent="25" vertex="1">
                    <mxGeometry x="255.3260869565217" y="108.14606741573034" width="96.84782608695652" height="25.95505617977528" as="geometry"/>
                </mxCell>
                <mxCell id="32" value="RAFT" style="rounded=0;whiteSpace=wrap;html=1;fillColor=#fad7ac;strokeColor=#b46504;fontColor=#333333;" parent="25" vertex="1">
                    <mxGeometry x="391.7934782608695" y="90.84269662921348" width="52.826086956521735" height="25.95505617977528" as="geometry"/>
                </mxCell>
                <mxCell id="33" value="" style="endArrow=classic;html=1;fontSize=10;fontColor=#333333;targetPerimeterSpacing=0;strokeColor=#000000;strokeWidth=3;fillColor=default;jumpStyle=none;exitX=1;exitY=0.5;exitDx=0;exitDy=0;entryX=0;entryY=0.25;entryDx=0;entryDy=0;" parent="25" source="30" target="32" edge="1">
                    <mxGeometry width="50" height="50" relative="1" as="geometry">
                        <mxPoint x="365.3804347826087" y="102.91179775280882" as="sourcePoint"/>
                        <mxPoint x="382.9891304347826" y="102.91179775280882" as="targetPoint"/>
                    </mxGeometry>
                </mxCell>
                <mxCell id="34" value="&lt;font&gt;Optical flow (t-1,t)&lt;br&gt;&lt;/font&gt;" style="rounded=1;whiteSpace=wrap;html=1;fillColor=#eeeeee;strokeColor=#36393d;fontColor=#000000;" parent="25" vertex="1">
                    <mxGeometry x="475.4347826086956" y="86.51685393258427" width="96.84782608695652" height="34.60674157303371" as="geometry"/>
                </mxCell>
                <mxCell id="35" value="" style="endArrow=classic;html=1;fontSize=10;fontColor=#333333;targetPerimeterSpacing=0;strokeColor=#000000;strokeWidth=3;fillColor=default;jumpStyle=none;" parent="25" edge="1">
                    <mxGeometry width="50" height="50" relative="1" as="geometry">
                        <mxPoint x="449.0217391304349" y="103.44820224719075" as="sourcePoint"/>
                        <mxPoint x="466.63043478260886" y="103.44820224719075" as="targetPoint"/>
                    </mxGeometry>
                </mxCell>
                <mxCell id="36" value="Attention map &lt;br&gt;creator" style="rounded=0;whiteSpace=wrap;html=1;fillColor=#d0cee2;strokeColor=#56517e;fontColor=#333333;" parent="25" vertex="1">
                    <mxGeometry x="607.5" y="75.70224719101124" width="61.630434782608695" height="56.235955056179776" as="geometry"/>
                </mxCell>
                <mxCell id="37" value="" style="endArrow=classic;html=1;fontSize=10;fontColor=#333333;targetPerimeterSpacing=0;strokeColor=#000000;strokeWidth=3;fillColor=default;jumpStyle=none;" parent="25" edge="1">
                    <mxGeometry width="50" height="50" relative="1" as="geometry">
                        <mxPoint x="581.0869565217392" y="103.06752808988735" as="sourcePoint"/>
                        <mxPoint x="598.6956521739132" y="103.06752808988735" as="targetPoint"/>
                    </mxGeometry>
                </mxCell>
                <mxCell id="38" value="&lt;font&gt;&lt;font style=&quot;font-size: 10px&quot;&gt;First frame &lt;br&gt;annotated points&amp;nbsp;&lt;/font&gt;&lt;br&gt;&lt;/font&gt;" style="rounded=1;whiteSpace=wrap;html=1;fillColor=#eeeeee;strokeColor=#36393d;fontColor=#000000;" parent="25" vertex="1">
                    <mxGeometry x="585.4891304347826" width="105.65217391304347" height="25.95505617977528" as="geometry"/>
                </mxCell>
                <mxCell id="39" value="" style="endArrow=classic;html=1;fontSize=10;fontColor=#333333;targetPerimeterSpacing=0;strokeColor=#000000;strokeWidth=3;fillColor=default;jumpStyle=none;" parent="25" edge="1">
                    <mxGeometry width="50" height="50" relative="1" as="geometry">
                        <mxPoint x="637.9366304347825" y="34.60674157303332" as="sourcePoint"/>
                        <mxPoint x="637.9366304347825" y="69.21348314606742" as="targetPoint"/>
                    </mxGeometry>
                </mxCell>
                <mxCell id="40" value="U-Net &lt;br&gt;with attention" style="rounded=0;whiteSpace=wrap;html=1;fillColor=#ffcccc;strokeColor=#36393d;fontColor=#333333;" parent="25" vertex="1">
                    <mxGeometry x="713.1521739130434" y="155.7303370786517" width="88.04347826086956" height="36.76966292134831" as="geometry"/>
                </mxCell>
                <mxCell id="41" value="Attention map&lt;br&gt;(t-1, t)" style="rounded=1;whiteSpace=wrap;html=1;fontColor=#000000;fillColor=#EEEEEE;strokeColor=#000000;" parent="25" vertex="1">
                    <mxGeometry x="704.3478260869565" y="86.51685393258427" width="105.65217391304347" height="34.60674157303371" as="geometry"/>
                </mxCell>
                <mxCell id="42" value="" style="endArrow=classic;html=1;fontSize=10;fontColor=#333333;targetPerimeterSpacing=0;strokeColor=#000000;strokeWidth=3;fillColor=default;jumpStyle=none;" parent="25" edge="1">
                    <mxGeometry width="50" height="50" relative="1" as="geometry">
                        <mxPoint x="677.9347826086956" y="103.82022471910074" as="sourcePoint"/>
                        <mxPoint x="695.5434782608695" y="103.82022471910074" as="targetPoint"/>
                    </mxGeometry>
                </mxCell>
                <mxCell id="43" value="" style="endArrow=classic;html=1;fontSize=10;fontColor=#333333;targetPerimeterSpacing=0;strokeColor=#000000;strokeWidth=3;fillColor=default;jumpStyle=none;" parent="25" edge="1">
                    <mxGeometry width="50" height="50" relative="1" as="geometry">
                        <mxPoint x="756.8745652173911" y="131.93820224719062" as="sourcePoint"/>
                        <mxPoint x="756.8745652173911" y="147.07865168539325" as="targetPoint"/>
                    </mxGeometry>
                </mxCell>
                <mxCell id="44" value="" style="endArrow=classic;html=1;fontSize=10;fontColor=#333333;targetPerimeterSpacing=0;strokeColor=#000000;strokeWidth=3;fillColor=default;jumpStyle=none;" parent="25" edge="1">
                    <mxGeometry width="50" height="50" relative="1" as="geometry">
                        <mxPoint x="299.3478260869565" y="138.42696629213464" as="sourcePoint"/>
                        <mxPoint x="704.3478260869565" y="173.03370786516854" as="targetPoint"/>
                        <Array as="points">
                            <mxPoint x="299.3478260869565" y="173.03370786516854"/>
                        </Array>
                    </mxGeometry>
                </mxCell>
                <mxCell id="45" value="" style="endArrow=classic;html=1;fontSize=10;fontColor=#333333;targetPerimeterSpacing=0;strokeColor=#000000;strokeWidth=3;fillColor=default;jumpStyle=none;exitX=1;exitY=0.5;exitDx=0;exitDy=0;" parent="25" source="31" edge="1">
                    <mxGeometry width="50" height="50" relative="1" as="geometry">
                        <mxPoint x="360.9782608695652" y="95.16853932584269" as="sourcePoint"/>
                        <mxPoint x="391.7934782608695" y="111.60674157303372" as="targetPoint"/>
                    </mxGeometry>
                </mxCell>
                <mxCell id="68" value="&lt;font&gt;Video&lt;/font&gt;" style="rounded=1;whiteSpace=wrap;html=1;fillColor=#eeeeee;strokeColor=#36393d;fontColor=#000000;" vertex="1" parent="1">
                    <mxGeometry x="80" y="90" width="120" height="40" as="geometry"/>
                </mxCell>
                <mxCell id="69" value="RAFT" style="rounded=0;whiteSpace=wrap;html=1;fillColor=#fad7ac;strokeColor=#b46504;fontColor=#333333;" vertex="1" parent="1">
                    <mxGeometry x="240" y="230" width="120" height="80" as="geometry"/>
                </mxCell>
                <mxCell id="70" value="Frame extractor" style="rounded=0;whiteSpace=wrap;html=1;fillColor=#cdeb8b;strokeColor=#333333;fontColor=#333333;" vertex="1" parent="1">
                    <mxGeometry x="240" y="70" width="120" height="80" as="geometry"/>
                </mxCell>
                <mxCell id="71" value="&lt;font&gt;Frame t-1&amp;nbsp;&lt;br&gt;Frame t&lt;br&gt;&lt;/font&gt;" style="rounded=1;whiteSpace=wrap;html=1;fillColor=#eeeeee;strokeColor=#36393d;fontColor=#000000;" vertex="1" parent="1">
                    <mxGeometry x="400" y="90" width="120" height="40" as="geometry"/>
                </mxCell>
                <mxCell id="72" value="&lt;font&gt;Frame t-1&amp;nbsp;&lt;br&gt;&lt;/font&gt;" style="rounded=1;whiteSpace=wrap;html=1;fillColor=#eeeeee;strokeColor=#36393d;fontColor=#000000;" vertex="1" parent="1">
                    <mxGeometry x="80" y="235" width="120" height="30" as="geometry"/>
                </mxCell>
                <mxCell id="73" value="&lt;font&gt;Optical flow (t-1,t)&lt;br&gt;&lt;/font&gt;" style="rounded=1;whiteSpace=wrap;html=1;fillColor=#eeeeee;strokeColor=#36393d;fontColor=#000000;" vertex="1" parent="1">
                    <mxGeometry x="400" y="250" width="120" height="40" as="geometry"/>
                </mxCell>
                <mxCell id="74" value="Attention map &lt;br&gt;creator" style="rounded=0;whiteSpace=wrap;html=1;fillColor=#d0cee2;strokeColor=#56517e;fontColor=#333333;" vertex="1" parent="1">
                    <mxGeometry x="240" y="390" width="120" height="80" as="geometry"/>
                </mxCell>
                <mxCell id="75" value="&lt;font&gt;Optical flow (t-1,t)&lt;br&gt;&lt;/font&gt;" style="rounded=1;whiteSpace=wrap;html=1;fillColor=#eeeeee;strokeColor=#36393d;fontColor=#000000;" vertex="1" parent="1">
                    <mxGeometry x="80" y="395" width="120" height="30" as="geometry"/>
                </mxCell>
                <mxCell id="76" value="&lt;font&gt;Frame t&amp;nbsp;&lt;br&gt;&lt;/font&gt;" style="rounded=1;whiteSpace=wrap;html=1;fillColor=#eeeeee;strokeColor=#36393d;fontColor=#000000;" vertex="1" parent="1">
                    <mxGeometry x="80" y="275" width="120" height="30" as="geometry"/>
                </mxCell>
                <mxCell id="77" value="&lt;font&gt;&lt;font style=&quot;font-size: 10px&quot;&gt;First frame &lt;br&gt;annotated points&amp;nbsp;&lt;/font&gt;&lt;br&gt;&lt;/font&gt;" style="rounded=1;whiteSpace=wrap;html=1;fillColor=#eeeeee;strokeColor=#36393d;fontColor=#000000;" vertex="1" parent="1">
                    <mxGeometry x="80" y="435" width="120" height="30" as="geometry"/>
                </mxCell>
                <mxCell id="78" value="Attention map&lt;br&gt;(t-1, t)" style="rounded=1;whiteSpace=wrap;html=1;fontColor=#000000;fillColor=#EEEEEE;strokeColor=#000000;" vertex="1" parent="1">
                    <mxGeometry x="400" y="410" width="120" height="40" as="geometry"/>
                </mxCell>
                <mxCell id="79" value="" style="endArrow=classic;html=1;fontSize=10;fontColor=#333333;targetPerimeterSpacing=0;strokeColor=#000000;strokeWidth=3;fillColor=default;jumpStyle=none;" edge="1" parent="1">
                    <mxGeometry width="50" height="50" relative="1" as="geometry">
                        <mxPoint x="210" y="109.57000000000016" as="sourcePoint"/>
                        <mxPoint x="230" y="109.57000000000016" as="targetPoint"/>
                    </mxGeometry>
                </mxCell>
                <mxCell id="80" value="" style="endArrow=classic;html=1;fontSize=10;fontColor=#333333;targetPerimeterSpacing=0;strokeColor=#000000;strokeWidth=3;fillColor=default;jumpStyle=none;" edge="1" parent="1">
                    <mxGeometry width="50" height="50" relative="1" as="geometry">
                        <mxPoint x="210" y="269.5699999999995" as="sourcePoint"/>
                        <mxPoint x="230" y="269.5699999999995" as="targetPoint"/>
                    </mxGeometry>
                </mxCell>
                <mxCell id="81" value="" style="endArrow=classic;html=1;fontSize=10;fontColor=#333333;targetPerimeterSpacing=0;strokeColor=#000000;strokeWidth=3;fillColor=default;jumpStyle=none;" edge="1" parent="1">
                    <mxGeometry width="50" height="50" relative="1" as="geometry">
                        <mxPoint x="210" y="429.12999999999965" as="sourcePoint"/>
                        <mxPoint x="230" y="429.12999999999965" as="targetPoint"/>
                    </mxGeometry>
                </mxCell>
                <mxCell id="82" value="" style="endArrow=classic;html=1;fontSize=10;fontColor=#333333;targetPerimeterSpacing=0;strokeColor=#000000;strokeWidth=3;fillColor=default;jumpStyle=none;" edge="1" parent="1">
                    <mxGeometry width="50" height="50" relative="1" as="geometry">
                        <mxPoint x="370" y="429.99999999999955" as="sourcePoint"/>
                        <mxPoint x="390" y="429.99999999999955" as="targetPoint"/>
                    </mxGeometry>
                </mxCell>
                <mxCell id="83" value="" style="endArrow=classic;html=1;fontSize=10;fontColor=#333333;targetPerimeterSpacing=0;strokeColor=#000000;strokeWidth=3;fillColor=default;jumpStyle=none;" edge="1" parent="1">
                    <mxGeometry width="50" height="50" relative="1" as="geometry">
                        <mxPoint x="370" y="269.5699999999995" as="sourcePoint"/>
                        <mxPoint x="390" y="269.5699999999995" as="targetPoint"/>
                    </mxGeometry>
                </mxCell>
                <mxCell id="84" value="" style="endArrow=classic;html=1;fontSize=10;fontColor=#333333;targetPerimeterSpacing=0;strokeColor=#000000;strokeWidth=3;fillColor=default;jumpStyle=none;" edge="1" parent="1">
                    <mxGeometry width="50" height="50" relative="1" as="geometry">
                        <mxPoint x="370" y="109.56999999999994" as="sourcePoint"/>
                        <mxPoint x="390" y="109.56999999999994" as="targetPoint"/>
                    </mxGeometry>
                </mxCell>
                <mxCell id="85" value="U-Net &lt;br&gt;with attention" style="rounded=0;whiteSpace=wrap;html=1;fillColor=#ffcccc;strokeColor=#36393d;fontColor=#333333;" vertex="1" parent="1">
                    <mxGeometry x="240" y="550" width="120" height="80" as="geometry"/>
                </mxCell>
                <mxCell id="86" value="&lt;font&gt;Attention map (t-1,t)&lt;br&gt;&lt;/font&gt;" style="rounded=1;whiteSpace=wrap;html=1;fillColor=#eeeeee;strokeColor=#36393d;fontColor=#000000;" vertex="1" parent="1">
                    <mxGeometry x="80" y="555" width="120" height="30" as="geometry"/>
                </mxCell>
                <mxCell id="87" value="Segmentation mask" style="rounded=1;whiteSpace=wrap;html=1;fontColor=#000000;fillColor=#EEEEEE;strokeColor=#000000;" vertex="1" parent="1">
                    <mxGeometry x="400" y="570" width="120" height="40" as="geometry"/>
                </mxCell>
                <mxCell id="88" value="" style="endArrow=classic;html=1;fontSize=10;fontColor=#333333;targetPerimeterSpacing=0;strokeColor=#000000;strokeWidth=3;fillColor=default;jumpStyle=none;" edge="1" parent="1">
                    <mxGeometry width="50" height="50" relative="1" as="geometry">
                        <mxPoint x="210" y="589.1299999999992" as="sourcePoint"/>
                        <mxPoint x="230" y="589.1299999999992" as="targetPoint"/>
                    </mxGeometry>
                </mxCell>
                <mxCell id="89" value="" style="endArrow=classic;html=1;fontSize=10;fontColor=#333333;targetPerimeterSpacing=0;strokeColor=#000000;strokeWidth=3;fillColor=default;jumpStyle=none;" edge="1" parent="1">
                    <mxGeometry width="50" height="50" relative="1" as="geometry">
                        <mxPoint x="370" y="589.9999999999991" as="sourcePoint"/>
                        <mxPoint x="390" y="589.9999999999991" as="targetPoint"/>
                    </mxGeometry>
                </mxCell>
                <mxCell id="90" value="&lt;font&gt;Frame t&lt;br&gt;&lt;/font&gt;" style="rounded=1;whiteSpace=wrap;html=1;fillColor=#eeeeee;strokeColor=#36393d;fontColor=#000000;" vertex="1" parent="1">
                    <mxGeometry x="80" y="595" width="120" height="30" as="geometry"/>
                </mxCell>
            </root>
        </mxGraphModel>
    </diagram>
</mxfile>